<svg width="159" height="37" viewBox="0 0 159 37" fill="#FF5300" xmlns="http://www.w3.org/2000/svg">
<path d="M10.8077 2.59833C14.8439 2.59833 17.9687 3.71805 20.1821 5.95749C22.3955 8.17089 23.5022 11.3478 23.5022 15.4881C23.5022 19.6024 22.3955 22.7793 20.1821 25.0188C17.9687 27.2582 14.8439 28.3779 10.8077 28.3779H0.847441V2.59833H10.8077ZM10.5343 24.0813C12.9821 24.0813 14.8179 23.3522 16.0418 21.894C17.2917 20.4097 17.9167 18.2744 17.9167 15.4881C17.9167 12.7018 17.2917 10.5796 16.0418 9.12135C14.8179 7.63707 12.9821 6.89493 10.5343 6.89493H6.23772V24.0813H10.5343ZM30.9557 6.03561C29.836 6.03561 29.0027 5.80125 28.4558 5.33253C27.909 4.83777 27.6356 4.12167 27.6356 3.18423C27.6356 2.22075 27.909 1.50465 28.4558 1.03593C29.0027 0.541167 29.836 0.293787 30.9557 0.293787C32.0754 0.293787 32.9087 0.541167 33.4555 1.03593C34.0024 1.50465 34.2758 2.22075 34.2758 3.18423C34.2758 4.12167 34.0024 4.83777 33.4555 5.33253C32.9087 5.80125 32.0754 6.03561 30.9557 6.03561ZM33.6118 8.84793V28.3779H28.2605V8.84793H33.6118ZM57.291 4.19979L57.9159 8.02767C57.8118 8.02767 57.6946 8.02767 57.5644 8.02767C57.4602 8.00163 57.3431 7.98861 57.2129 7.98861C56.0411 7.98861 55.1427 8.26203 54.5177 8.80887C53.9188 9.32967 53.6193 10.0588 53.6193 10.9962L51.432 10.0978C51.432 9.05625 51.6403 8.09277 52.0569 7.20741C52.4736 6.29601 53.0855 5.56689 53.8928 5.02005C54.726 4.47321 55.7156 4.19979 56.8613 4.19979C56.9134 4.19979 56.9785 4.19979 57.0566 4.19979C57.1347 4.19979 57.2129 4.19979 57.291 4.19979ZM50.8851 24.7063C52.9944 24.7063 54.6219 25.162 55.7676 26.0734C56.9134 26.9848 57.4863 28.2607 57.4863 29.9013C57.4863 31.3855 57.0566 32.6355 56.1973 33.651C55.338 34.6926 54.1271 35.4738 52.5647 35.9946C51.0284 36.5154 49.2446 36.7758 47.2135 36.7758C43.8543 36.7758 41.3936 36.3071 39.8312 35.3697C38.2948 34.4322 37.5266 33.2084 37.5266 31.698C37.5266 30.6304 37.9302 29.732 38.7375 29.0029C39.5708 28.2738 40.9379 27.8701 42.8388 27.792L42.6435 28.417C41.2894 28.1826 40.2478 27.7399 39.5187 27.0889C38.8156 26.4119 38.4641 25.4875 38.4641 24.3157C38.4641 23.1178 38.9198 22.1413 39.8312 21.3862C40.7686 20.605 42.0315 20.1493 43.62 20.0191L45.9636 21.1128H45.4167C44.297 21.1909 43.5028 21.4252 43.0341 21.8158C42.5914 22.1804 42.3701 22.597 42.3701 23.0658C42.3701 23.6126 42.5784 24.0292 42.995 24.3157C43.4377 24.5761 44.0627 24.7063 44.8699 24.7063H50.8851ZM47.2526 33.1042C48.6066 33.1042 49.7133 32.987 50.5727 32.7526C51.458 32.5183 52.109 32.2188 52.5257 31.8543C52.9683 31.4897 53.1897 31.0861 53.1897 30.6434C53.1897 30.1486 52.9944 29.745 52.6038 29.4325C52.2132 29.1461 51.5101 29.0029 50.4945 29.0029H43.8934C43.2684 29.0029 42.7476 29.1591 42.331 29.4716C41.9404 29.7841 41.7451 30.2137 41.7451 30.7606C41.7451 31.4897 42.2268 32.0626 43.1903 32.4792C44.1798 32.8959 45.5339 33.1042 47.2526 33.1042ZM47.2916 8.45733C49.1144 8.45733 50.6898 8.73075 52.0179 9.27759C53.372 9.79839 54.4005 10.5535 55.1036 11.5431C55.8327 12.5326 56.1973 13.7174 56.1973 15.0975C56.1973 16.4516 55.8327 17.6234 55.1036 18.6129C54.4005 19.6024 53.372 20.3706 52.0179 20.9175C50.6898 21.4383 49.1144 21.6987 47.2916 21.6987C44.4012 21.6987 42.1878 21.1128 40.6514 19.941C39.1151 18.7431 38.3469 17.1286 38.3469 15.0975C38.3469 13.7174 38.7114 12.5326 39.4406 11.5431C40.1697 10.5535 41.1983 9.79839 42.5263 9.27759C43.8543 8.73075 45.4428 8.45733 47.2916 8.45733ZM47.2916 11.8165C46.25 11.8165 45.3907 12.1029 44.7137 12.6758C44.0366 13.2487 43.6981 14.0429 43.6981 15.0585C43.6981 16.074 44.0366 16.8813 44.7137 17.4802C45.3907 18.0531 46.25 18.3395 47.2916 18.3395C48.3332 18.3395 49.1795 18.0531 49.8305 17.4802C50.5076 16.8813 50.8461 16.074 50.8461 15.0585C50.8461 14.0429 50.5076 13.2487 49.8305 12.6758C49.1795 12.1029 48.3332 11.8165 47.2916 11.8165ZM63.4167 6.03561C62.297 6.03561 61.4637 5.80125 60.9168 5.33253C60.37 4.83777 60.0966 4.12167 60.0966 3.18423C60.0966 2.22075 60.37 1.50465 60.9168 1.03593C61.4637 0.541167 62.297 0.293787 63.4167 0.293787C64.5364 0.293787 65.3697 0.541167 65.9165 1.03593C66.4634 1.50465 66.7368 2.22075 66.7368 3.18423C66.7368 4.12167 66.4634 4.83777 65.9165 5.33253C65.3697 5.80125 64.5364 6.03561 63.4167 6.03561ZM66.0728 8.84793V28.3779H60.7215V8.84793H66.0728Z" fill="#FF5300"/>
<path d="M80.8072 28.7685C78.7501 28.7685 76.9533 28.3649 75.417 27.5577C73.9066 26.7504 72.7348 25.5916 71.9016 24.0813C71.0683 22.571 70.6516 20.7482 70.6516 18.6129C70.6516 16.4776 71.0683 14.6548 71.9016 13.1445C72.7348 11.6342 73.8936 10.4754 75.3779 9.66819C76.8882 8.86095 78.6069 8.45733 80.5338 8.45733C82.5129 8.45733 84.1924 8.86095 85.5726 9.66819C86.9527 10.4494 88.0073 11.53 88.7364 12.9102C89.4655 14.2642 89.8301 15.8136 89.8301 17.5583C89.8301 18.0791 89.8171 18.5739 89.791 19.0426C89.765 19.5113 89.7259 19.9279 89.6739 20.2925H74.0889V16.5818H87.3303L84.7523 17.5192C84.7523 15.8787 84.3747 14.6158 83.6196 13.7304C82.8904 12.8451 81.8488 12.4024 80.4948 12.4024C79.5052 12.4024 78.6459 12.6367 77.9168 13.1055C77.2137 13.5742 76.6799 14.2773 76.3153 15.2147C75.9508 16.1261 75.7685 17.2849 75.7685 18.691C75.7685 20.0712 75.9638 21.2169 76.3544 22.1283C76.771 23.0137 77.3439 23.6777 78.073 24.1204C78.8282 24.5631 79.7266 24.7844 80.7682 24.7844C81.9139 24.7844 82.8384 24.5631 83.5414 24.1204C84.2445 23.6777 84.7914 23.0658 85.182 22.2846L89.4395 23.9251C89.0229 24.9406 88.3849 25.813 87.5256 26.5421C86.6923 27.2712 85.6897 27.8311 84.5179 28.2217C83.3722 28.5862 82.1353 28.7685 80.8072 28.7685ZM94.365 28.3779V8.84793H99.1694L99.4819 14.7069L98.8179 14.082C99.1303 12.806 99.6251 11.7644 100.302 10.9572C100.979 10.1239 101.799 9.49893 102.763 9.08229C103.752 8.66565 104.833 8.45733 106.005 8.45733C107.359 8.45733 108.557 8.71773 109.598 9.23853C110.666 9.75933 111.499 10.5535 112.098 11.6212C112.723 12.6628 113.036 13.9778 113.036 15.5662V28.3779H107.684V17.0896C107.684 15.423 107.359 14.2773 106.708 13.6523C106.057 13.0013 105.211 12.6758 104.169 12.6758C103.44 12.6758 102.724 12.8581 102.021 13.2226C101.344 13.5612 100.784 14.121 100.341 14.9022C99.9246 15.6834 99.7162 16.725 99.7162 18.027V28.3779H94.365ZM127.415 8.45733C129.16 8.45733 130.631 8.71773 131.829 9.23853C133.053 9.73329 134.029 10.4233 134.759 11.3087C135.514 12.168 136.048 13.1315 136.36 14.1991L131.36 15.9959C131.1 14.8241 130.657 13.9387 130.032 13.3398C129.407 12.7409 128.561 12.4414 127.493 12.4414C126.504 12.4414 125.658 12.6758 124.954 13.1445C124.251 13.5872 123.718 14.2773 123.353 15.2147C122.988 16.1261 122.806 17.2719 122.806 18.652C122.806 20.0321 122.988 21.1779 123.353 22.0893C123.744 23.0007 124.29 23.6777 124.994 24.1204C125.723 24.5631 126.569 24.7844 127.532 24.7844C128.314 24.7844 128.978 24.6542 129.525 24.3938C130.071 24.1074 130.514 23.7037 130.853 23.1829C131.217 22.6621 131.464 22.0372 131.595 21.3081L136.438 22.8705C136.152 24.0423 135.618 25.0708 134.837 25.9562C134.055 26.8416 133.053 27.5316 131.829 28.0264C130.605 28.5211 129.186 28.7685 127.572 28.7685C125.566 28.7685 123.796 28.3649 122.259 27.5577C120.723 26.7504 119.538 25.5916 118.705 24.0813C117.872 22.571 117.455 20.7482 117.455 18.6129C117.455 16.4776 117.872 14.6548 118.705 13.1445C119.538 11.6342 120.71 10.4754 122.22 9.66819C123.731 8.86095 125.462 8.45733 127.415 8.45733ZM158.459 8.84793L150.568 29.5888C149.943 31.3595 149.24 32.7657 148.459 33.8073C147.704 34.8489 146.819 35.604 145.803 36.0728C144.814 36.5415 143.629 36.7758 142.249 36.7758C141.233 36.7758 140.296 36.6456 139.436 36.3852C138.603 36.1509 137.874 35.8384 137.249 35.4478L138.382 31.5808C138.876 31.9714 139.397 32.2449 139.944 32.4011C140.491 32.5834 141.116 32.6745 141.819 32.6745C142.548 32.6745 143.173 32.5183 143.694 32.2058C144.241 31.8933 144.696 31.2684 145.061 30.3309L145.725 28.6513L143.577 23.5735L137.6 8.84793H143.538L147.248 20.5659L148.264 24.4719L149.475 20.3316L153.029 8.84793H158.459Z" fill="#FF5300"/>
</svg>
