<svg width="80" height="81" viewBox="0 0 80 81" fill="none" xmlns="http://www.w3.org/2000/svg">
<g clip-path="url(#clip0_43947_1287)">
<path d="M71.4688 60.0572H4.02422C1.80172 60.0572 0 58.2555 0 56.033V6.13359C0 3.91109 1.80172 2.10938 4.02422 2.10938H71.4688C73.6912 2.10938 75.493 3.91109 75.493 6.13359V56.033C75.493 58.2555 73.6912 60.0572 71.4688 60.0572Z" fill="#736572"/>
<path d="M80.0002 6.13359V56.033C80.0002 58.2559 78.1989 60.0572 75.9759 60.0572H71.147C73.37 60.0572 75.1712 58.2559 75.1712 56.033V54.4233L68.3477 35.9261L75.1712 7.74328V6.13359C75.1712 3.91063 73.37 2.10938 71.147 2.10938H75.9759C78.1989 2.10953 80.0002 3.91078 80.0002 6.13359Z" fill="#615260"/>
<path d="M74.3664 55.2284H5.63395C5.18941 55.2284 4.8291 54.868 4.8291 54.4235V17.4013L45.2914 12.1699L75.1711 17.4013V54.4235C75.1713 54.8679 74.8108 55.2284 74.3664 55.2284Z" fill="white"/>
<path d="M65.5133 33.0146H52.636L48.7856 30.6001L52.636 28.1855H65.5133C66.8467 28.1855 67.9278 29.2665 67.9278 30.6001C67.9277 31.9335 66.8467 33.0146 65.5133 33.0146Z" fill="#FCF1F2"/>
<path d="M52.6352 33.0146H14.4863C13.1529 33.0146 12.0718 31.9337 12.0718 30.6001C12.0718 29.2666 13.1527 28.1855 14.4863 28.1855H52.6352V33.0146Z" fill="#BAF39A"/>
<path d="M68.8643 12.3411L64.7083 17.4013H4.8291V7.74332C4.8291 7.29879 5.18941 6.93848 5.63394 6.93848H64.7083L68.8643 12.3411Z" fill="#FFE077"/>
<path d="M23.742 13.7799C22.8545 13.7799 22.1323 13.0577 22.1323 12.1702C22.1323 11.2827 22.8545 10.5605 23.742 10.5605C24.6295 10.5605 25.3517 11.2827 25.3517 12.1702C25.3517 13.0577 24.6295 13.7799 23.742 13.7799Z" fill="#FFC263"/>
<path d="M18.1077 13.7799C17.2202 13.7799 16.498 13.0577 16.498 12.1702C16.498 11.2827 17.2202 10.5605 18.1077 10.5605C18.9952 10.5605 19.7174 11.2827 19.7174 12.1702C19.7174 13.0577 18.9952 13.7799 18.1077 13.7799Z" fill="#FFC263"/>
<path d="M12.4744 13.7799C11.5869 13.7799 10.8647 13.0577 10.8647 12.1702C10.8647 11.2827 11.5869 10.5605 12.4744 10.5605C13.3619 10.5605 14.0841 11.2827 14.0841 12.1702C14.0841 13.0577 13.3619 13.7799 12.4744 13.7799Z" fill="#FFC263"/>
<path d="M64.708 6.93848H74.366C74.8105 6.93848 75.1708 7.29879 75.1708 7.74332V17.4013H64.708V6.93848Z" fill="#FFC263"/>
<path d="M40.0001 52.2502C39.3333 52.2502 38.793 51.7098 38.793 51.043V45.2482C38.793 44.5813 39.3334 44.041 40.0001 44.041C40.6669 44.041 41.2073 44.5815 41.2073 45.2482V51.043C41.2073 51.7098 40.667 52.2502 40.0001 52.2502Z" fill="#FCF1F2"/>
<path d="M46.5197 48.7891V47.8234C46.5197 44.8745 48.502 42.3887 51.2069 41.6259C51.7637 41.4688 54.51 42.8012 55.5833 45.029L62.3176 59.0079C63.9975 62.4948 64.8697 66.3154 64.8697 70.1857V72.4512C64.8697 76.0071 61.987 78.8898 58.4311 78.8898H58.753C55.197 78.8898 52.3144 76.0071 52.3144 72.4512C52.3144 70.9088 51.9919 69.3834 51.3675 67.9731L50.8492 66.8021C50.3336 65.6371 49.1794 64.8859 47.9055 64.8859H32.0958C30.8219 64.8859 29.6676 65.6371 29.152 66.8021L28.6337 67.9731C28.0094 69.3835 27.6869 70.9088 27.6869 72.4512C27.6869 76.0071 24.8042 78.8898 21.2483 78.8898H17.0631C13.5072 78.8898 10.6245 76.0071 10.6245 72.4512V70.1857C10.6245 66.3154 11.4969 62.4948 13.1767 59.0079L19.9111 45.029C20.9844 42.8012 23.2387 41.3848 25.7117 41.3848H27.0431C30.599 41.3848 33.4817 44.2674 33.4817 47.8234V48.7891C33.4817 49.6782 34.2023 50.3988 35.0914 50.3988H44.9103C45.799 50.3988 46.5197 49.6782 46.5197 48.7891Z" fill="#BCF1F8"/>
<path d="M69.3757 70.1865V72.4513C69.3757 76.0071 66.4929 78.8899 62.9372 78.8899H58.752C58.6473 78.8899 58.5428 78.8866 58.4398 78.8818C61.8411 78.7096 64.5468 75.8959 64.5468 72.4512V70.1863C64.5468 66.3151 63.6743 62.4954 61.9956 59.0073L55.2607 45.029C54.4479 43.3421 52.9573 42.1204 51.2061 41.6262C51.7631 41.4684 52.3506 41.3848 52.9573 41.3848H54.2886C56.7611 41.3848 59.0161 42.8013 60.0898 45.029L66.8247 59.0073C68.5034 62.4955 69.3757 66.3152 69.3757 70.1865Z" fill="#91F2F2"/>
<path d="M24.7078 61.6664C22.4853 61.6664 20.6836 59.8647 20.6836 57.6424C20.6836 55.4199 22.4853 53.6182 24.7078 53.6182C26.9303 53.6182 28.732 55.4199 28.732 57.6424C28.7319 59.8647 26.9303 61.6664 24.7078 61.6664Z" fill="white"/>
<path d="M59.3154 56.4352H56.4985V53.6183C56.4985 52.9514 55.958 52.4111 55.2913 52.4111C54.6244 52.4111 54.0841 52.9516 54.0841 53.6183V56.4352H51.2672C50.6004 56.4352 50.0601 56.9757 50.0601 57.6424C50.0601 58.3091 50.6005 58.8496 51.2672 58.8496H54.0841V61.6664C54.0841 62.3333 54.6246 62.8736 55.2913 62.8736C55.9582 62.8736 56.4985 62.3332 56.4985 61.6664V58.8496H59.3154C59.9823 58.8496 60.5226 58.3091 60.5226 57.6424C60.5226 56.9757 59.9821 56.4352 59.3154 56.4352Z" fill="white"/>
<path d="M45.6336 61.264H42.4142C41.7473 61.264 41.207 60.7235 41.207 60.0568C41.207 59.3901 41.7475 58.8496 42.4142 58.8496H45.6336C46.3005 58.8496 46.8408 59.3901 46.8408 60.0568C46.8408 60.7235 46.3005 61.264 45.6336 61.264Z" fill="#7DE8F9"/>
<path d="M37.5857 61.264H34.3664C33.6995 61.264 33.1592 60.7235 33.1592 60.0568C33.1592 59.3901 33.6996 58.8496 34.3664 58.8496H37.5857C38.2526 58.8496 38.7929 59.3901 38.7929 60.0568C38.7929 60.7235 38.2526 61.264 37.5857 61.264Z" fill="#7DE8F9"/>
<path d="M39.9995 46.6162C38.4437 46.6162 37.1826 45.3551 37.1826 43.7993C37.1826 42.2435 38.4437 40.9824 39.9995 40.9824C41.5553 40.9824 42.8164 42.2435 42.8164 43.7993C42.8164 45.3549 41.5553 46.6162 39.9995 46.6162Z" fill="#CBB0F2"/>
</g>
<defs>
<clipPath id="clip0_43947_1287">
<rect width="80" height="80" fill="white" transform="translate(0 0.5)"/>
</clipPath>
</defs>
</svg>
