<svg width="80" height="81" viewBox="0 0 80 81" fill="none" xmlns="http://www.w3.org/2000/svg">
<path d="M50.6775 68.8494V62.4326H29.323V68.8494C29.4116 74.1914 26.3745 79.3287 26.3745 79.3287H53.626C53.626 79.3287 50.589 74.1915 50.6775 68.8494Z" fill="#ACACAC"/>
<path d="M29.3223 63.6982H50.6775V66.8718H29.3223V63.6982Z" fill="#9C9C9C"/>
<path d="M77.4554 63.6995H2.54425C1.48076 63.6995 0.618652 62.8373 0.618652 61.7739V15.7205C0.618652 14.657 1.48076 13.7949 2.54425 13.7949H77.4554C78.5188 13.7949 79.381 14.657 79.381 15.7205V61.774C79.381 62.8373 78.5188 63.6995 77.4554 63.6995Z" fill="#ACACAC"/>
<path d="M79.3807 15.7203V61.774C79.3807 62.8372 78.519 63.6988 77.4543 63.6988H74.2822C75.3454 63.6988 76.207 62.8372 76.207 61.774V15.7203C76.207 14.6571 75.3454 13.7939 74.2822 13.7939H77.4543C78.519 13.7939 79.3807 14.6571 79.3807 15.7203Z" fill="#9C9C9C"/>
<path d="M6.74854 54.5052V21.2252C6.74854 20.2492 7.50206 19.458 8.43166 19.458H71.5676C72.4972 19.458 73.2507 20.2492 73.2507 21.2252V54.5052H6.74854Z" fill="#C4E2FF"/>
<path d="M73.2517 21.2247V54.5045H70.0781V21.2247C70.0781 20.2488 69.3244 19.457 68.3945 19.457H71.5681C72.4979 19.457 73.2517 20.2488 73.2517 21.2247Z" fill="#A5D5F9"/>
<path d="M58.1122 80.5007H21.8891C21.2419 80.5007 20.7173 79.9761 20.7173 79.329C20.7173 78.6819 21.2419 78.1572 21.8891 78.1572H58.1122C58.7594 78.1572 59.284 78.6819 59.284 79.329C59.284 79.9761 58.7594 80.5007 58.1122 80.5007Z" fill="#5A5A5A"/>
<path d="M65.9975 54.5048H14.0015V1.79367C14.0015 1.07967 14.5803 0.500977 15.2942 0.500977H64.7047C65.4187 0.500977 65.9974 1.07983 65.9974 1.79367V54.5048H65.9975Z" fill="#EAF6FF"/>
<path d="M65.9982 1.79332V54.5051H62.8246V1.79332C62.8246 1.07932 62.2454 0.5 61.5312 0.5H64.7049C65.419 0.5 65.9982 1.07916 65.9982 1.79332Z" fill="#D8ECFE"/>
<path d="M33.7116 8.99902C32.1805 8.99902 30.9394 10.2402 30.9394 11.7713V22.6327C30.9394 23.0294 30.9394 23.7676 29.4869 24.4991C29.0847 24.7016 28.6416 24.8 28.1326 24.8C28.1309 24.8 28.129 24.8 28.1275 24.8C27.5863 24.7994 27.1207 24.6696 26.7035 24.403C25.5947 23.6947 25.5044 23.1874 25.5044 22.6441V11.7713C25.5044 10.2402 24.2633 8.99902 22.7322 8.99902C21.2011 8.99902 19.96 10.2402 19.96 11.7713V22.6443C19.96 25.3184 21.2245 27.4823 23.7185 29.0756C25.0332 29.9155 26.514 30.3426 28.1201 30.3448H28.1326C29.5089 30.3448 30.8036 30.0442 31.981 29.4513C34.885 27.989 36.4843 25.5673 36.4843 22.6329V11.7714C36.4839 10.2402 35.2427 8.99902 33.7116 8.99902Z" fill="#97D729"/>
<path d="M59.4755 26.0081L54.2375 19.1062L58.5934 13.3294C59.5152 12.1069 59.2714 10.3686 58.0489 9.4468C56.826 8.52454 55.0879 8.76874 54.1663 9.99128L50.7541 14.5165L47.3146 9.9844C46.3889 8.76483 44.6498 8.52657 43.4303 9.45195C42.2105 10.3776 41.9723 12.1167 42.8978 13.3363L47.2851 19.1171L42.2947 25.7354C41.373 26.958 41.6167 28.6962 42.8392 29.618C43.339 29.995 43.9249 30.1769 44.5063 30.1769C45.3466 30.1769 46.177 29.7963 46.722 29.0736L50.7685 23.707L55.0587 29.3601C55.6041 30.0786 56.4317 30.4566 57.2691 30.4566C57.8531 30.4566 58.442 30.2727 58.943 29.8925C60.1628 28.9667 60.4012 27.2276 59.4755 26.0081Z" fill="#97D729"/>
<path d="M36.4839 11.7711V22.6327C36.4839 25.5683 34.886 27.9897 31.9806 29.4512C30.8048 30.0446 29.5099 30.3445 28.1327 30.3445H28.12C27.6138 30.343 27.1203 30.3017 26.6411 30.2177C27.4567 30.0764 28.2342 29.821 28.9657 29.4512C31.8711 27.9897 33.4691 25.5683 33.4691 22.6327V11.7711C33.4691 10.7953 32.966 9.93831 32.2043 9.44492C32.6376 9.16245 33.1549 8.99902 33.7119 8.99902C35.243 8.99902 36.4839 10.2398 36.4839 11.7711Z" fill="#8BC727"/>
<path d="M58.9438 29.8925C58.4424 30.2734 57.8537 30.4575 57.2697 30.4575C56.7398 30.4575 56.213 30.3052 55.7607 30.01C55.8178 29.9735 55.8733 29.9339 55.9289 29.8925C57.1491 28.9675 57.3872 27.2283 56.4621 26.0081L51.6568 19.6772C51.4009 19.3399 51.4001 18.8737 51.6549 18.5356L55.5799 13.3296C56.5018 12.1078 56.2575 10.3686 55.0356 9.44665C54.9817 9.40696 54.9276 9.36884 54.8721 9.334C55.8211 8.71828 57.0937 8.72468 58.0504 9.44665C59.2722 10.3686 59.5167 12.1076 58.5948 13.3296L54.2391 19.1071L59.477 26.0081C60.4021 27.2283 60.164 28.9675 58.9438 29.8925Z" fill="#8BC727"/>
<path d="M60.0389 37.6336H19.9594C19.3122 37.6336 18.7876 37.1089 18.7876 36.4618C18.7876 35.8147 19.3122 35.29 19.9594 35.29H60.0389C60.686 35.29 61.2106 35.8147 61.2106 36.4618C61.2106 37.1089 60.686 37.6336 60.0389 37.6336Z" fill="#96CCED"/>
<path d="M60.0389 42.4607H19.9594C19.3122 42.4607 18.7876 41.9361 18.7876 41.289C18.7876 40.6418 19.3122 40.1172 19.9594 40.1172H60.0389C60.686 40.1172 61.2106 40.6418 61.2106 41.289C61.2106 41.9361 60.686 42.4607 60.0389 42.4607Z" fill="#96CCED"/>
<path d="M60.0389 47.2888H19.9594C19.3122 47.2888 18.7876 46.7642 18.7876 46.1171C18.7876 45.47 19.3122 44.9453 19.9594 44.9453H60.0389C60.686 44.9453 61.2106 45.47 61.2106 46.1171C61.2106 46.7642 60.686 47.2888 60.0389 47.2888Z" fill="#96CCED"/>
<path d="M79.381 54.5049V61.774C79.381 62.8372 78.5193 63.6989 77.4546 63.6989H2.54503C1.48029 63.6989 0.618652 62.8372 0.618652 61.774V54.5049H79.381Z" fill="#5A5A5A"/>
<path d="M79.3807 54.5049V61.774C79.3807 62.8372 78.519 63.6989 77.4543 63.6989H74.2822C75.3454 63.6989 76.207 62.8372 76.207 61.774V54.5049H79.3807Z" fill="#444444"/>
<path d="M42.38 60.2732H37.6195C36.9724 60.2732 36.4478 59.7486 36.4478 59.1014C36.4478 58.4543 36.9724 57.9297 37.6195 57.9297H42.38C43.0271 57.9297 43.5518 58.4543 43.5518 59.1014C43.5518 59.7486 43.0271 60.2732 42.38 60.2732Z" fill="#333333"/>
</svg>
