<svg width="80" height="81" viewBox="0 0 80 81" fill="none" xmlns="http://www.w3.org/2000/svg">
<path d="M6.25 20.5H73.75C74.413 20.5 75.0489 20.7634 75.5178 21.2322C75.9866 21.7011 76.25 22.337 76.25 23V60.5H3.75V23C3.75 22.337 4.01339 21.7011 4.48223 21.2322C4.95107 20.7634 5.58696 20.5 6.25 20.5Z" fill="#3780EA"/>
<path d="M8.75 35.5H41.25V55.5H8.75V35.5Z" fill="#896FF7"/>
<path d="M52.5 71.75V76.75H27.5V71.75H36.25H43.75H52.5Z" fill="#E8E5FB"/>
<path d="M36.25 64.25H43.75V71.75H36.25V64.25Z" fill="#8E95A3"/>
<path d="M76.25 61.75V63C76.248 63.6624 75.984 64.2972 75.5156 64.7656C75.0472 65.234 74.4124 65.498 73.75 65.5H6.25C5.58757 65.498 4.95283 65.234 4.48442 64.7656C4.01601 64.2972 3.75198 63.6624 3.75 63V60.5H76.25V61.75Z" fill="#E8E5FB"/>
<path d="M10 8H35V28H10V8Z" fill="#78B9EB"/>
<path d="M41.25 35.5L25 45.5L8.75 35.5H41.25Z" fill="#B9B1F1"/>
<path d="M45 9.25H53.75V19.25H45V9.25Z" fill="#E8E5FB"/>
<path d="M51.25 19.25L50 28H46.25V19.25H51.25Z" fill="#C7BEC5"/>
<path d="M74.2625 12.4875C74.4975 12.7167 74.6839 12.9909 74.8106 13.2937C74.9373 13.5965 75.0017 13.9218 75 14.25C74.998 14.9125 74.734 15.5472 74.2656 16.0156C73.7972 16.484 73.1624 16.7481 72.5 16.75H70V11.75H72.5C72.8283 11.7483 73.1535 11.8127 73.4563 11.9394C73.7591 12.0661 74.0333 12.2525 74.2625 12.4875Z" fill="#EC455A"/>
<path d="M70 4.25V24.25L53.75 19.25V9.25L70 4.25Z" fill="#F6CC4F"/>
<path d="M41.25 11.75H45V16.75H41.25V11.75Z" fill="#EC455A"/>
<path d="M46.25 33H68.75V48H46.25V33Z" fill="#9E2849"/>
<path d="M71.25 38V53H50V48V38H68.75H71.25Z" fill="#EC455A"/>
<path d="M53.75 41.75H56.25V44.25H53.75V41.75Z" fill="#E8E5FB"/>
<path d="M58.75 41.75H67.5V44.25H58.75V41.75Z" fill="#E8E5FB"/>
<path d="M53.75 46.75H58.75V49.25H53.75V46.75Z" fill="#E8E5FB"/>
<path d="M61.25 46.75H67.5V49.25H61.25V46.75Z" fill="#E8E5FB"/>
<path d="M36.25 65.5H43.75V68H36.25V65.5Z" fill="#636263"/>
<path d="M27.5 18L18.75 23V13L27.5 18Z" fill="#EC455A"/>
</svg>
